<svg xmlns="http://www.w3.org/2000/svg" xmlns:xlink="http://www.w3.org/1999/xlink" width="20" height="20" viewBox="0 0 20 20">
    <defs>
        <path id="c5ok780rza" d="M18.333 15c0 .92-.747 1.667-1.666 1.667H3.333c-.919 0-1.666-.748-1.666-1.667V6.667c0-.92.747-1.667 1.666-1.667H5v.833c0 .46.373.834.833.834.46 0 .834-.374.834-.834V5h6.666v.833c0 .46.374.834.834.834.46 0 .833-.374.833-.834V5h1.667c.919 0 1.666.747 1.666 1.667V15zM16.667 3.333H15V2.5c0-.46-.373-.833-.833-.833-.46 0-.834.373-.834.833v.833H6.667V2.5c0-.46-.374-.833-.834-.833-.46 0-.833.373-.833.833v.833H3.333C1.495 3.333 0 4.828 0 6.667V15c0 1.838 1.495 3.333 3.333 3.333h13.334C18.505 18.333 20 16.838 20 15V6.667c0-1.839-1.495-3.334-3.333-3.334zM5.837 9.158c-.46 0-.837.378-.837.838 0 .46.377.838.837.838.46 0 .838-.378.838-.838 0-.46-.378-.838-.838-.838m0 3.334c-.46 0-.837.377-.837.837 0 .46.377.838.837.838.46 0 .838-.378.838-.838 0-.46-.378-.837-.838-.837m8.334 0c-.46 0-.838.377-.838.837 0 .46.378.838.838.838.46 0 .837-.378.837-.838 0-.46-.377-.837-.837-.837m0-3.334c-.46 0-.838.378-.838.838 0 .46.378.838.838.838.46 0 .837-.378.837-.838 0-.46-.377-.838-.837-.838m-4.167 0c-.46 0-.837.378-.837.838 0 .46.377.838.837.838.46 0 .838-.378.838-.838 0-.46-.378-.838-.838-.838m0 3.334c-.46 0-.837.377-.837.837 0 .46.377.838.837.838.46 0 .838-.378.838-.838 0-.46-.378-.837-.838-.837"/>
    </defs>
    <g fill="none" fill-rule="evenodd">
        <mask id="5i6qqi7nab" fill="#fff">
            <use xlink:href="#c5ok780rza"/>
        </mask>
        <use fill="#000" xlink:href="#c5ok780rza"/>
        <g fill="#1b262c" mask="url(#5i6qqi7nab)">
            <path d="M0 0H20V20H0z"/>
        </g>
    </g>
</svg>