<svg xmlns="http://www.w3.org/2000/svg" xmlns:xlink="http://www.w3.org/1999/xlink" width="67" height="67" viewBox="0 0 67 67">
    <defs>
        <filter id="cxwfhygxxa" width="211.1%" height="211.1%" x="-55.6%" y="-55.6%" filterUnits="objectBoundingBox">
            <feOffset in="SourceAlpha" result="shadowOffsetOuter1"/>
            <feGaussianBlur in="shadowOffsetOuter1" result="shadowBlurOuter1" stdDeviation="5"/>
            <feColorMatrix in="shadowBlurOuter1" result="shadowMatrixOuter1" values="0 0 0 0 0 0 0 0 0 0 0 0 0 0 0 0 0 0 0.461511145 0"/>
            <feMerge>
                <feMergeNode in="shadowMatrixOuter1"/>
                <feMergeNode in="SourceGraphic"/>
            </feMerge>
        </filter>
        <path id="m1l7efvoab" d="M15.317 5.098L8.435.183c-.341-.244-.8-.244-1.142 0L.412 5.098c-.442.316-.544.93-.229 1.371.315.443.93.544 1.371.23l.412-.295v8.341c0 .543.44.983.983.983h9.83c.544 0 .983-.44.983-.983v-8.34c.343.244.587.476.982.476.308 0 .61-.143.801-.412.316-.441.213-1.055-.228-1.371zm-3.52 8.664H9.83v-2.949c0-1.086-.88-1.966-1.966-1.966-1.086 0-1.966.88-1.966 1.966v2.95H3.932V5L7.864 2.19 11.796 5v8.762z"/>
    </defs>
    <g fill="none" fill-rule="evenodd" filter="url(#cxwfhygxxa)" transform="translate(15.127 15.127)">
        <rect width="32.887" height="32.887" x="1.43" y="1.43" fill="#213743" stroke="#192B37" stroke-width="2.86" rx="8.579"/>
        <g transform="translate(10.009 10.009)">
            <mask id="wd87vlifuc" fill="#fff">
                <use xlink:href="#m1l7efvoab"/>
            </mask>
            <use fill="#000" fill-rule="nonzero" xlink:href="#m1l7efvoab"/>
            <g fill="#FFF" mask="url(#wd87vlifuc)">
                <path d="M0 0H15.728V15.728H0z"/>
            </g>
        </g>
    </g>
</svg>
